<svg xmlns="http://www.w3.org/2000/svg" xmlns:xlink="http://www.w3.org/1999/xlink" contentStyleType="text/css" data-diagram-type="ACTIVITY" height="2422.5px" preserveAspectRatio="none" style="width:1696px;height:2422px;background:#FFFFFF;" version="1.1" viewBox="0 0 1696 2422" width="1696.875px" zoomAndPan="magnify"><?plantuml 1.2026.6?><defs/><g><g class="title" data-source-line="2"><text fill="#000000" font-family="Arial" font-size="26.25" font-weight="700" lengthAdjust="spacing" textLength="326.6895" x="684.0472" y="62.1222">QUY TR&#204;NH PH&#194;N QUY&#7872;N</text></g><rect fill="none" height="25.8728" style="stroke:none;stroke-width:1.875;" width="1610.4089" x="37.5" y="99.6405"/><ellipse cx="335.1746" cy="153.6383" fill="#000000" rx="18.75" ry="18.75" style="stroke:#222222;stroke-width:1.875;"/><rect fill="#FFFFFF" height="63.3728" style="stroke:#000000;stroke-width:0.9375;" width="252.3926" x="208.9783" y="209.8883"/><text fill="#000000" font-family="Arial" font-size="22.5" lengthAdjust="spacing" textLength="214.8926" x="227.7283" y="249.743">M&#7903; trang ph&#226;n quy&#7873;n</text><rect fill="#FFFFFF" height="63.3728" style="stroke:#000000;stroke-width:0.9375;" width="343.7769" x="163.2861" y="310.7611"/><text fill="#000000" font-family="Arial" font-size="22.5" lengthAdjust="spacing" textLength="306.2769" x="182.0361" y="350.6158">Ch&#7885;n ng&#432;&#7901;i d&#249;ng/nh&#243;m quy&#7873;n</text><rect fill="#FFFFFF" height="63.3728" style="stroke:#000000;stroke-width:0.9375;" width="241.0986" x="214.6252" y="503.3203"/><text fill="#000000" font-family="Arial" font-size="22.5" lengthAdjust="spacing" textLength="203.5986" x="233.3752" y="543.175">Ch&#7885;n nh&#243;m cha m&#7899;i</text><polygon fill="#F2F2F2" points="186.936,411.6339,483.4131,411.6339,505.9131,434.1339,483.4131,456.6339,186.936,456.6339,164.436,434.1339,186.936,411.6339" style="stroke:#000000;stroke-width:0.9375;stroke-linejoin:miter;stroke-miterlimit:10;"/><text fill="#000000" font-family="Arial" font-size="22.5" lengthAdjust="spacing" textLength="28.7622" x="342.6746" y="477.7386">C&#243;</text><text fill="#000000" font-family="Arial" font-size="22.5" lengthAdjust="spacing" textLength="296.4771" x="186.936" y="442.3022">C&#7853;p nh&#7853;t quan h&#7879; nh&#243;m cha?</text><text fill="#000000" font-family="Arial" font-size="22.5" lengthAdjust="spacing" textLength="65.061" x="99.375" y="429.3658">Kh&#244;ng</text><polygon fill="#F2F2F2" points="335.1746,1113.0615,357.6746,1135.5615,335.1746,1158.0615,312.6746,1135.5615,335.1746,1113.0615" style="stroke:#000000;stroke-width:0.9375;stroke-linejoin:miter;stroke-miterlimit:10;"/><rect fill="#FFFFFF" height="63.3728" style="stroke:#000000;stroke-width:0.9375;" width="297.7002" x="186.3245" y="1195.5615"/><text fill="#000000" font-family="Arial" font-size="22.5" lengthAdjust="spacing" textLength="260.2002" x="205.0745" y="1235.4163">Ch&#7885;n trang v&#224; th&#224;nh ph&#7847;n</text><rect fill="#FFFFFF" height="63.3728" style="stroke:#000000;stroke-width:0.9375;" width="386.4807" x="141.9342" y="1296.4343"/><text fill="#000000" font-family="Arial" font-size="22.5" lengthAdjust="spacing" textLength="348.9807" x="160.6842" y="1336.2891">Thi&#7871;t l&#7853;p quy&#7873;n hi&#7875;n th&#7883; v&#224; thao t&#225;c</text><rect fill="#FFFFFF" height="63.3728" style="stroke:#000000;stroke-width:0.9375;" width="381.1963" x="364.9274" y="2211.7896"/><text fill="#000000" font-family="Arial" font-size="22.5" lengthAdjust="spacing" textLength="343.6963" x="383.6774" y="2251.6443">Ki&#7875;m tra giao di&#7879;n theo quy&#7873;n m&#7899;i</text><ellipse cx="555.5255" cy="2333.2874" fill="none" rx="20.625" ry="20.625" style="stroke:#222222;stroke-width:1.875;"/><ellipse cx="555.5255" cy="2333.2874" fill="#222222" rx="11.25" ry="11.25" style="stroke:#222222;stroke-width:1.875;"/><line style="stroke:#000000;stroke-width:2.8125;" x1="37.5" x2="37.5" y1="99.6405" y2="2383.9124"/><rect fill="#FFFFFF" height="63.3728" style="stroke:#000000;stroke-width:0.9375;" width="292.6245" x="967.6932" y="604.1931"/><text fill="#000000" font-family="Arial" font-size="22.5" lengthAdjust="spacing" textLength="255.1245" x="986.4432" y="644.0479">Ki&#7875;m tra tham chi&#7871;u v&#242;ng</text><polygon fill="#F2F2F2" points="1042.7042,705.0659,1185.3067,705.0659,1207.8067,727.5659,1185.3067,750.0659,1042.7042,750.0659,1020.2042,727.5659,1042.7042,705.0659" style="stroke:#000000;stroke-width:0.9375;stroke-linejoin:miter;stroke-miterlimit:10;"/><text fill="#000000" font-family="Arial" font-size="22.5" lengthAdjust="spacing" textLength="142.6025" x="1042.7042" y="735.7343">T&#7841;o v&#242;ng l&#7863;p?</text><text fill="#000000" font-family="Arial" font-size="22.5" lengthAdjust="spacing" textLength="28.7622" x="991.442" y="722.7979">C&#243;</text><text fill="#000000" font-family="Arial" font-size="22.5" lengthAdjust="spacing" textLength="65.061" x="1207.8067" y="722.7979">Kh&#244;ng</text><rect fill="#FFFFFF" height="63.3728" style="stroke:#000000;stroke-width:0.9375;" width="206.4038" x="764.8737" y="768.8159"/><text fill="#000000" font-family="Arial" font-size="22.5" lengthAdjust="spacing" textLength="168.9038" x="783.6237" y="808.6707">T&#7915; ch&#7889;i c&#7853;p nh&#7853;t</text><ellipse cx="868.0756" cy="890.3137" fill="none" rx="20.625" ry="20.625" style="stroke:#222222;stroke-width:1.875;"/><ellipse cx="868.0756" cy="890.3137" fill="#222222" rx="11.25" ry="11.25" style="stroke:#222222;stroke-width:1.875;"/><rect fill="#FFFFFF" height="63.3728" style="stroke:#000000;stroke-width:0.9375;" width="260.127" x="1229.8718" y="768.8159"/><text fill="#000000" font-family="Arial" font-size="22.5" lengthAdjust="spacing" textLength="222.627" x="1248.6218" y="808.6707">T&#237;nh &#273;&#7897; s&#226;u c&#226;y nh&#243;m</text><polygon fill="#F2F2F2" points="1267.348,869.6887,1452.5226,869.6887,1475.0226,892.1887,1452.5226,914.6887,1267.348,914.6887,1244.848,892.1887,1267.348,869.6887" style="stroke:#000000;stroke-width:0.9375;stroke-linejoin:miter;stroke-miterlimit:10;"/><text fill="#000000" font-family="Arial" font-size="22.5" lengthAdjust="spacing" textLength="185.1746" x="1267.348" y="900.3571">&#272;&#7897; s&#226;u t&#7915; 10 c&#7845;p?</text><text fill="#000000" font-family="Arial" font-size="22.5" lengthAdjust="spacing" textLength="28.7622" x="1216.0858" y="887.4207">C&#243;</text><text fill="#000000" font-family="Arial" font-size="22.5" lengthAdjust="spacing" textLength="65.061" x="1475.0226" y="887.4207">Kh&#244;ng</text><rect fill="#FFFFFF" height="63.3728" style="stroke:#000000;stroke-width:0.9375;" width="340.2502" x="1027.5275" y="933.4387"/><text fill="#000000" font-family="Arial" font-size="22.5" lengthAdjust="spacing" textLength="302.7502" x="1046.2775" y="973.2935">T&#7915; ch&#7889;i do c&#226;y quy&#7873;n qu&#225; s&#226;u</text><ellipse cx="1197.6526" cy="1054.9365" fill="none" rx="20.625" ry="20.625" style="stroke:#222222;stroke-width:1.875;"/><ellipse cx="1197.6526" cy="1054.9365" fill="#222222" rx="11.25" ry="11.25" style="stroke:#222222;stroke-width:1.875;"/><rect fill="#FFFFFF" height="63.3728" style="stroke:#000000;stroke-width:0.9375;" width="233.8806" x="1405.2777" y="933.4387"/><text fill="#000000" font-family="Arial" font-size="22.5" lengthAdjust="spacing" textLength="196.3806" x="1424.0277" y="973.2935">C&#7853;p nh&#7853;t nh&#243;m cha</text><rect fill="#FFFFFF" height="63.3728" style="stroke:#000000;stroke-width:0.9375;" width="486.5662" x="870.7224" y="1397.3071"/><text fill="#000000" font-family="Arial" font-size="22.5" lengthAdjust="spacing" textLength="449.0662" x="889.4724" y="1437.1619">T&#236;m &#225;nh x&#7841; trang, ch&#7913;c n&#259;ng v&#224; nh&#243;m quy&#7873;n</text><polygon fill="#F2F2F2" points="1038.9523,1498.1799,1189.0585,1498.1799,1211.5585,1520.6799,1189.0585,1543.1799,1038.9523,1543.1799,1016.4523,1520.6799,1038.9523,1498.1799" style="stroke:#000000;stroke-width:0.9375;stroke-linejoin:miter;stroke-miterlimit:10;"/><text fill="#000000" font-family="Arial" font-size="22.5" lengthAdjust="spacing" textLength="150.1062" x="1038.9523" y="1528.8483">&#193;nh x&#7841; t&#7891;n t&#7841;i?</text><text fill="#000000" font-family="Arial" font-size="22.5" lengthAdjust="spacing" textLength="65.061" x="951.3913" y="1515.9119">Kh&#244;ng</text><text fill="#000000" font-family="Arial" font-size="22.5" lengthAdjust="spacing" textLength="28.7622" x="1211.5585" y="1515.9119">C&#243;</text><rect fill="#FFFFFF" height="63.3728" style="stroke:#000000;stroke-width:0.9375;" width="253.8428" x="766.7331" y="1580.6799"/><text fill="#000000" font-family="Arial" font-size="22.5" lengthAdjust="spacing" textLength="216.3428" x="785.4831" y="1620.5347">Tr&#7843; l&#7895;i kh&#244;ng t&#236;m th&#7845;y</text><ellipse cx="893.6545" cy="1702.1777" fill="none" rx="20.625" ry="20.625" style="stroke:#222222;stroke-width:1.875;"/><ellipse cx="893.6545" cy="1702.1777" fill="#222222" rx="11.25" ry="11.25" style="stroke:#222222;stroke-width:1.875;"/><rect fill="#FFFFFF" height="63.3728" style="stroke:#000000;stroke-width:0.9375;" width="270.1794" x="1199.2667" y="1580.6799"/><text fill="#000000" font-family="Arial" font-size="22.5" lengthAdjust="spacing" textLength="232.6794" x="1218.0167" y="1620.5347">C&#7853;p nh&#7853;t &#225;nh x&#7841; quy&#7873;n</text><rect fill="#FFFFFF" height="63.3728" style="stroke:#000000;stroke-width:0.9375;" width="366.0571" x="1151.3278" y="1681.5527"/><text fill="#000000" font-family="Arial" font-size="22.5" lengthAdjust="spacing" textLength="328.5571" x="1170.0778" y="1721.4075">L&#432;u ng&#432;&#7901;i v&#224; th&#7901;i &#273;i&#7875;m c&#7853;p nh&#7853;t</text><rect fill="#FFFFFF" height="89.2456" style="stroke:#000000;stroke-width:0.9375;" width="326.2097" x="1171.2515" y="1782.4255"/><text fill="#000000" font-family="Arial" font-size="22.5" lengthAdjust="spacing" textLength="286.4685" x="1190.0015" y="1822.2803">Ph&#225;t t&#237;n hi&#7879;u c&#7853;p nh&#7853;t quy&#7873;n</text><text fill="#000000" font-family="Arial" font-size="22.5" lengthAdjust="spacing" textLength="288.7097" x="1190.0015" y="1848.1531">theo th&#7901;i gian th&#7921;c (SignalR)</text><rect fill="#FFFFFF" height="63.3728" style="stroke:#000000;stroke-width:0.9375;" width="457.6501" x="1105.5313" y="1909.1711"/><text fill="#000000" font-family="Arial" font-size="22.5" lengthAdjust="spacing" textLength="420.1501" x="1124.2813" y="1949.0259">Giao di&#7879;n ng&#432;&#7901;i d&#249;ng t&#7843;i l&#7841;i d&#7919; li&#7879;u quy&#7873;n</text><rect fill="#FFFFFF" height="63.3728" style="stroke:#000000;stroke-width:0.9375;" width="375.3406" x="1146.6861" y="2010.0439"/><text fill="#000000" font-family="Arial" font-size="22.5" lengthAdjust="spacing" textLength="337.8406" x="1165.4361" y="2049.8987">&#7848;n/kh&#243;a ch&#7913;c n&#259;ng v&#7915;a b&#7883; thu h&#7891;i</text><rect fill="#FFFFFF" height="63.3728" style="stroke:#000000;stroke-width:0.9375;" width="552.561" x="1058.0759" y="2110.9167"/><text fill="#000000" font-family="Arial" font-size="22.5" lengthAdjust="spacing" textLength="515.061" x="1076.8259" y="2150.7715">D&#7883;ch v&#7909; ti&#7871;p t&#7909;c ki&#7875;m tra ch&#237;nh s&#225;ch &#7903; t&#7915;ng thao t&#225;c</text><line style="stroke:#000000;stroke-width:2.8125;" x1="753.6237" x2="753.6237" y1="99.6405" y2="2383.9124"/><line style="stroke:#000000;stroke-width:2.8125;" x1="1646.6583" x2="1646.6583" y1="99.6405" y2="2383.9124"/><line style="stroke:#000000;stroke-width:2.0625;" x1="335.1746" x2="335.1746" y1="172.3883" y2="209.8883"/><polygon fill="#000000" points="327.6746,191.1383,335.1746,209.8883,342.6746,191.1383,335.1746,198.6383" style="stroke:#000000;stroke-width:1.875;stroke-linejoin:miter;stroke-miterlimit:10;"/><line style="stroke:#000000;stroke-width:2.0625;" x1="335.1746" x2="335.1746" y1="273.2611" y2="310.7611"/><polygon fill="#000000" points="327.6746,292.0111,335.1746,310.7611,342.6746,292.0111,335.1746,299.5111" style="stroke:#000000;stroke-width:1.875;stroke-linejoin:miter;stroke-miterlimit:10;"/><line style="stroke:#000000;stroke-width:2.0625;" x1="335.1746" x2="335.1746" y1="456.6339" y2="503.3203"/><polygon fill="#000000" points="327.6746,484.5703,335.1746,503.3203,342.6746,484.5703,335.1746,492.0703" style="stroke:#000000;stroke-width:1.875;stroke-linejoin:miter;stroke-miterlimit:10;"/><line style="stroke:#000000;stroke-width:2.0625;" x1="164.436" x2="73.125" y1="434.1339" y2="434.1339"/><polygon fill="#000000" points="65.625,781.9409,73.125,800.6909,80.625,781.9409,73.125,789.4409" style="stroke:#000000;stroke-width:2.0625;stroke-linejoin:miter;stroke-miterlimit:10;"/><line style="stroke:#000000;stroke-width:2.0625;" x1="73.125" x2="73.125" y1="434.1339" y2="1135.5615"/><line style="stroke:#000000;stroke-width:2.0625;" x1="73.125" x2="312.6746" y1="1135.5615" y2="1135.5615"/><polygon fill="#000000" points="293.9246,1128.0615,312.6746,1135.5615,293.9246,1143.0615,301.4246,1135.5615" style="stroke:#000000;stroke-width:1.875;stroke-linejoin:miter;stroke-miterlimit:10;"/><line style="stroke:#000000;stroke-width:2.0625;" x1="335.1746" x2="335.1746" y1="374.1339" y2="411.6339"/><polygon fill="#000000" points="327.6746,392.8839,335.1746,411.6339,342.6746,392.8839,335.1746,400.3839" style="stroke:#000000;stroke-width:1.875;stroke-linejoin:miter;stroke-miterlimit:10;"/><line style="stroke:#000000;stroke-width:2.0625;" x1="335.1746" x2="335.1746" y1="1158.0615" y2="1195.5615"/><polygon fill="#000000" points="327.6746,1176.8115,335.1746,1195.5615,342.6746,1176.8115,335.1746,1184.3115" style="stroke:#000000;stroke-width:1.875;stroke-linejoin:miter;stroke-miterlimit:10;"/><line style="stroke:#000000;stroke-width:2.0625;" x1="335.1746" x2="335.1746" y1="1258.9343" y2="1296.4343"/><polygon fill="#000000" points="327.6746,1277.6843,335.1746,1296.4343,342.6746,1277.6843,335.1746,1285.1843" style="stroke:#000000;stroke-width:1.875;stroke-linejoin:miter;stroke-miterlimit:10;"/><line style="stroke:#000000;stroke-width:2.0625;" x1="555.5255" x2="555.5255" y1="2275.1624" y2="2312.6624"/><polygon fill="#000000" points="548.0255,2293.9124,555.5255,2312.6624,563.0255,2293.9124,555.5255,2301.4124" style="stroke:#000000;stroke-width:1.875;stroke-linejoin:miter;stroke-miterlimit:10;"/><line style="stroke:#000000;stroke-width:2.0625;" x1="868.0756" x2="868.0756" y1="832.1887" y2="869.6887"/><polygon fill="#000000" points="860.5756,850.9387,868.0756,869.6887,875.5756,850.9387,868.0756,858.4387" style="stroke:#000000;stroke-width:1.875;stroke-linejoin:miter;stroke-miterlimit:10;"/><line style="stroke:#000000;stroke-width:2.0625;" x1="1197.6526" x2="1197.6526" y1="996.8115" y2="1034.3115"/><polygon fill="#000000" points="1190.1526,1015.5615,1197.6526,1034.3115,1205.1526,1015.5615,1197.6526,1023.0615" style="stroke:#000000;stroke-width:1.875;stroke-linejoin:miter;stroke-miterlimit:10;"/><line style="stroke:#000000;stroke-width:2.0625;" x1="1244.848" x2="1197.6526" y1="892.1887" y2="892.1887"/><line style="stroke:#000000;stroke-width:2.0625;" x1="1197.6526" x2="1197.6526" y1="892.1887" y2="933.4387"/><polygon fill="#000000" points="1190.1526,914.6887,1197.6526,933.4387,1205.1526,914.6887,1197.6526,922.1887" style="stroke:#000000;stroke-width:1.875;stroke-linejoin:miter;stroke-miterlimit:10;"/><line style="stroke:#000000;stroke-width:2.0625;" x1="1475.0226" x2="1522.218" y1="892.1887" y2="892.1887"/><line style="stroke:#000000;stroke-width:2.0625;" x1="1522.218" x2="1522.218" y1="892.1887" y2="933.4387"/><polygon fill="#000000" points="1514.718,914.6887,1522.218,933.4387,1529.718,914.6887,1522.218,922.1887" style="stroke:#000000;stroke-width:1.875;stroke-linejoin:miter;stroke-miterlimit:10;"/><line style="stroke:#000000;stroke-width:2.0625;" x1="1522.218" x2="1522.218" y1="996.8115" y2="1089.7183"/><line style="stroke:#000000;stroke-width:2.0625;" x1="1522.218" x2="335.1746" y1="1089.7183" y2="1089.7183"/><line style="stroke:#000000;stroke-width:2.0625;" x1="335.1746" x2="335.1746" y1="1089.7183" y2="1113.0615"/><polygon fill="#000000" points="327.6746,1094.3115,335.1746,1113.0615,342.6746,1094.3115,335.1746,1101.8115" style="stroke:#000000;stroke-width:1.875;stroke-linejoin:miter;stroke-miterlimit:10;"/><line style="stroke:#000000;stroke-width:2.0625;" x1="1359.9353" x2="1359.9353" y1="832.1887" y2="869.6887"/><polygon fill="#000000" points="1352.4353,850.9387,1359.9353,869.6887,1367.4353,850.9387,1359.9353,858.4387" style="stroke:#000000;stroke-width:1.875;stroke-linejoin:miter;stroke-miterlimit:10;"/><line style="stroke:#000000;stroke-width:2.0625;" x1="1020.2042" x2="868.0756" y1="727.5659" y2="727.5659"/><line style="stroke:#000000;stroke-width:2.0625;" x1="868.0756" x2="868.0756" y1="727.5659" y2="768.8159"/><polygon fill="#000000" points="860.5756,750.0659,868.0756,768.8159,875.5756,750.0659,868.0756,757.5659" style="stroke:#000000;stroke-width:1.875;stroke-linejoin:miter;stroke-miterlimit:10;"/><line style="stroke:#000000;stroke-width:2.0625;" x1="1207.8067" x2="1359.9353" y1="727.5659" y2="727.5659"/><line style="stroke:#000000;stroke-width:2.0625;" x1="1359.9353" x2="1359.9353" y1="727.5659" y2="768.8159"/><polygon fill="#000000" points="1352.4353,750.0659,1359.9353,768.8159,1367.4353,750.0659,1359.9353,757.5659" style="stroke:#000000;stroke-width:1.875;stroke-linejoin:miter;stroke-miterlimit:10;"/><line style="stroke:#000000;stroke-width:2.0625;" x1="1114.0054" x2="1114.0054" y1="667.5659" y2="705.0659"/><polygon fill="#000000" points="1106.5054,686.3159,1114.0054,705.0659,1121.5054,686.3159,1114.0054,693.8159" style="stroke:#000000;stroke-width:1.875;stroke-linejoin:miter;stroke-miterlimit:10;"/><line style="stroke:#000000;stroke-width:2.0625;" x1="893.6545" x2="893.6545" y1="1644.0527" y2="1681.5527"/><polygon fill="#000000" points="886.1545,1662.8027,893.6545,1681.5527,901.1545,1662.8027,893.6545,1670.3027" style="stroke:#000000;stroke-width:1.875;stroke-linejoin:miter;stroke-miterlimit:10;"/><line style="stroke:#000000;stroke-width:2.0625;" x1="1334.3564" x2="1334.3564" y1="1644.0527" y2="1681.5527"/><polygon fill="#000000" points="1326.8564,1662.8027,1334.3564,1681.5527,1341.8564,1662.8027,1334.3564,1670.3027" style="stroke:#000000;stroke-width:1.875;stroke-linejoin:miter;stroke-miterlimit:10;"/><line style="stroke:#000000;stroke-width:2.0625;" x1="1334.3564" x2="1334.3564" y1="1744.9255" y2="1782.4255"/><polygon fill="#000000" points="1326.8564,1763.6755,1334.3564,1782.4255,1341.8564,1763.6755,1334.3564,1771.1755" style="stroke:#000000;stroke-width:1.875;stroke-linejoin:miter;stroke-miterlimit:10;"/><line style="stroke:#000000;stroke-width:2.0625;" x1="1334.3564" x2="1334.3564" y1="1871.6711" y2="1909.1711"/><polygon fill="#000000" points="1326.8564,1890.4211,1334.3564,1909.1711,1341.8564,1890.4211,1334.3564,1897.9211" style="stroke:#000000;stroke-width:1.875;stroke-linejoin:miter;stroke-miterlimit:10;"/><line style="stroke:#000000;stroke-width:2.0625;" x1="1334.3564" x2="1334.3564" y1="1972.5439" y2="2010.0439"/><polygon fill="#000000" points="1326.8564,1991.2939,1334.3564,2010.0439,1341.8564,1991.2939,1334.3564,1998.7939" style="stroke:#000000;stroke-width:1.875;stroke-linejoin:miter;stroke-miterlimit:10;"/><line style="stroke:#000000;stroke-width:2.0625;" x1="1334.3564" x2="1334.3564" y1="2073.4167" y2="2110.9167"/><polygon fill="#000000" points="1326.8564,2092.1667,1334.3564,2110.9167,1341.8564,2092.1667,1334.3564,2099.6667" style="stroke:#000000;stroke-width:1.875;stroke-linejoin:miter;stroke-miterlimit:10;"/><line style="stroke:#000000;stroke-width:2.0625;" x1="1016.4523" x2="893.6545" y1="1520.6799" y2="1520.6799"/><line style="stroke:#000000;stroke-width:2.0625;" x1="893.6545" x2="893.6545" y1="1520.6799" y2="1580.6799"/><polygon fill="#000000" points="886.1545,1561.9299,893.6545,1580.6799,901.1545,1561.9299,893.6545,1569.4299" style="stroke:#000000;stroke-width:1.875;stroke-linejoin:miter;stroke-miterlimit:10;"/><line style="stroke:#000000;stroke-width:2.0625;" x1="1211.5585" x2="1334.3564" y1="1520.6799" y2="1520.6799"/><line style="stroke:#000000;stroke-width:2.0625;" x1="1334.3564" x2="1334.3564" y1="1520.6799" y2="1580.6799"/><polygon fill="#000000" points="1326.8564,1561.9299,1334.3564,1580.6799,1341.8564,1561.9299,1334.3564,1569.4299" style="stroke:#000000;stroke-width:1.875;stroke-linejoin:miter;stroke-miterlimit:10;"/><line style="stroke:#000000;stroke-width:2.0625;" x1="1114.0054" x2="1114.0054" y1="1460.6799" y2="1498.1799"/><polygon fill="#000000" points="1106.5054,1479.4299,1114.0054,1498.1799,1121.5054,1479.4299,1114.0054,1486.9299" style="stroke:#000000;stroke-width:1.875;stroke-linejoin:miter;stroke-miterlimit:10;"/><line style="stroke:#000000;stroke-width:2.0625;" x1="335.1746" x2="335.1746" y1="566.6931" y2="576.0681"/><line style="stroke:#000000;stroke-width:2.0625;" x1="335.1746" x2="1114.0054" y1="576.0681" y2="576.0681"/><line style="stroke:#000000;stroke-width:2.0625;" x1="1114.0054" x2="1114.0054" y1="576.0681" y2="604.1931"/><polygon fill="#000000" points="1106.5054,585.4431,1114.0054,604.1931,1121.5054,585.4431,1114.0054,592.9431" style="stroke:#000000;stroke-width:1.875;stroke-linejoin:miter;stroke-miterlimit:10;"/><line style="stroke:#000000;stroke-width:2.0625;" x1="335.1746" x2="335.1746" y1="1359.8071" y2="1369.1821"/><line style="stroke:#000000;stroke-width:2.0625;" x1="335.1746" x2="1114.0054" y1="1369.1821" y2="1369.1821"/><line style="stroke:#000000;stroke-width:2.0625;" x1="1114.0054" x2="1114.0054" y1="1369.1821" y2="1397.3071"/><polygon fill="#000000" points="1106.5054,1378.5571,1114.0054,1397.3071,1121.5054,1378.5571,1114.0054,1386.0571" style="stroke:#000000;stroke-width:1.875;stroke-linejoin:miter;stroke-miterlimit:10;"/><line style="stroke:#000000;stroke-width:2.0625;" x1="1334.3564" x2="1334.3564" y1="2174.2896" y2="2183.6646"/><line style="stroke:#000000;stroke-width:2.0625;" x1="1334.3564" x2="555.5255" y1="2183.6646" y2="2183.6646"/><line style="stroke:#000000;stroke-width:2.0625;" x1="555.5255" x2="555.5255" y1="2183.6646" y2="2211.7896"/><polygon fill="#000000" points="548.0255,2193.0396,555.5255,2211.7896,563.0255,2193.0396,555.5255,2200.5396" style="stroke:#000000;stroke-width:1.875;stroke-linejoin:miter;stroke-miterlimit:10;"/><text fill="#000000" font-family="Arial" font-size="22.5" lengthAdjust="spacing" textLength="173.8696" x="308.627" y="120.7452">Qu&#7843;n tr&#7883; h&#7879; th&#7889;ng</text><text fill="#000000" font-family="Arial" font-size="22.5" lengthAdjust="spacing" textLength="91.3184" x="1154.4818" y="120.7452">H&#7879; th&#7889;ng</text><?plantuml-src VLHDQnD16BxlhtYz9Q29NfE3Xme6gg6jyI1uMJVRdQ6xisio6mpaOEsXXoeOUX0HiKa9AXgiHX1t3Xucz7_CF_6TcUpcWzBBpl1-FlEypxitAFF2jEr3fLBruYYAMTNrEErHth_LvVtGhoHf53gSyj27tSTFeBKdNpSRiDEGhvhQeCJBfkCCTbELdJFW7ILEW2Xn31o_GnOCd2vtEzofFLJY4_fT5a12v9Z1yxIln26hExKj37t3W0MN5qfyfD2MVrbGPKJEecKKtOVIbigc2J221qUFosmh6-aHzsuPs_eC0-Mix00KbVC0Y9JuGEle6ZJMG6BiDbNYAD8GqUpgSAgoVodqv2yMw1IDeAMoKMnD4AhiJxBP4WkrbFY6sLYPWhU2k6xSNHudUF73hW-bRI9_io3FarD6O3vKuZrqvJW5Juxx5hjDrG3cRmitrttktDOz9bVWs43IZcsz1Q5uof6fKrz4Bu1T1KqpkKfzmQVDzLcRxZlvkPvkRTVf8n-IrKPFdg5BdY4J2JRxhFNHCfFWcd34a3-0w7anK-TaaUR6mEN8gpiRqqLglqSWHrZq1GxGjhffcFdg0PiVBHfV8JbvM2GfSOhjy4eBifSarLeTV2525Eye71WpOi6k22ARz3LHXc3BJg7FLLQN-0e46FBWyY9ThePzfxdEXrQmcnAhxH0vujXyQZawJjT2yk9F6JuXpei5rBLK_lIWz8W6p0ttogRQVOgijdMTpGtLN9nJFPKHMfJu0Q5jjmfVPLzO5VcOkHjqepHTUAPdnqcg9N5gzh9s3qqUqVu9S3ttH3C_yU1WkPyUCQlInLaJCFyLhAO1BHM06twDvjRNFLXveY4bbrZnjx2ZqrB-3m00?></g></svg>