<svg xmlns="http://www.w3.org/2000/svg" xmlns:xlink="http://www.w3.org/1999/xlink" contentStyleType="text/css" data-diagram-type="ACTIVITY" height="1848.3333px" preserveAspectRatio="none" style="width:1033px;height:1848px;background:#FFFFFF;" version="1.1" viewBox="0 0 1033 1848" width="1033.3333px" zoomAndPan="magnify"><?plantuml 1.2026.6?><defs/><g><g class="title" data-source-line="2"><text fill="#000000" font-family="Arial" font-size="23.3333" font-weight="700" lengthAdjust="spacing" textLength="549.6436" x="240.861" y="55.2197">QUY TR&#204;NH CH&#7888;T K&#7922; V&#192; &#272;I&#7872;U CH&#7880;NH SAU CH&#7888;T</text></g><ellipse cx="451.2852" cy="103.4977" fill="#000000" rx="16.6667" ry="16.6667" style="stroke:#222222;stroke-width:1.6667;"/><rect fill="#FFFFFF" height="62.0809" style="stroke:#000000;stroke-width:0.8333;" width="512.8255" x="194.8724" y="153.4977"/><text fill="#000000" font-family="Arial" font-size="25" lengthAdjust="spacing" textLength="479.4922" x="211.5391" y="193.6141">Qu&#7843;n l&#253; ch&#7885;n k&#7923;, nh&#224; cung c&#7845;p v&#224; b&#7843;ng gi&#225;</text><rect fill="#FFFFFF" height="62.0809" style="stroke:#000000;stroke-width:0.8333;" width="422.1883" x="240.191" y="248.9119"/><text fill="#000000" font-family="Arial" font-size="25" lengthAdjust="spacing" textLength="388.855" x="256.8577" y="289.0283">Y&#234;u c&#7847;u xem tr&#432;&#7899;c k&#7871;t qu&#7843; ch&#7889;t k&#7923;</text><rect fill="#FFFFFF" height="62.0809" style="stroke:#000000;stroke-width:0.8333;" width="370.2474" x="266.1615" y="344.3262"/><text fill="#000000" font-family="Arial" font-size="25" lengthAdjust="spacing" textLength="336.9141" x="282.8282" y="384.4425">H&#7879; th&#7889;ng t&#7893;ng h&#7907;p &#273;&#417;n h&#7907;p l&#7879;</text><rect fill="#FFFFFF" height="62.0809" style="stroke:#000000;stroke-width:0.8333;" width="476.6927" x="212.9388" y="439.7404"/><text fill="#000000" font-family="Arial" font-size="25" lengthAdjust="spacing" textLength="443.3594" x="229.6055" y="479.8568">H&#7879; th&#7889;ng &#273;&#7889;i chi&#7871;u gi&#225; v&#224; &#273;i&#7873;u ki&#7879;n ch&#7889;t</text><polygon fill="#F2F2F2" points="293.5398,535.1546,609.0306,535.1546,629.0306,555.1546,609.0306,575.1546,293.5398,575.1546,273.5398,555.1546,293.5398,535.1546" style="stroke:#000000;stroke-width:0.8333;stroke-linejoin:miter;stroke-miterlimit:10;"/><text fill="#000000" font-family="Arial" font-size="25" lengthAdjust="spacing" textLength="315.4907" x="293.5398" y="564.2306">C&#242;n &#273;i&#7873;u ki&#7879;n ng&#259;n ch&#7889;t k&#7923;?</text><text fill="#000000" font-family="Arial" font-size="25" lengthAdjust="spacing" textLength="31.958" x="241.5818" y="549.8568">C&#243;</text><text fill="#000000" font-family="Arial" font-size="25" lengthAdjust="spacing" textLength="72.29" x="629.0306" y="549.8568">Kh&#244;ng</text><rect fill="#FFFFFF" height="62.0809" style="stroke:#000000;stroke-width:0.8333;" width="348.8485" x="26.6667" y="591.8213"/><text fill="#000000" font-family="Arial" font-size="25" lengthAdjust="spacing" textLength="315.5151" x="43.3333" y="631.9377">Hi&#7875;n th&#7883; danh s&#225;ch c&#7847;n x&#7917; l&#253;</text><rect fill="#FFFFFF" height="62.0809" style="stroke:#000000;stroke-width:0.8333;" width="323.8607" x="39.1606" y="687.2355"/><text fill="#000000" font-family="Arial" font-size="25" lengthAdjust="spacing" textLength="290.5273" x="55.8272" y="727.3519">Qu&#7843;n l&#253; &#273;i&#7873;u ch&#7881;nh d&#7919; li&#7879;u</text><rect fill="#FFFFFF" height="62.0809" style="stroke:#000000;stroke-width:0.8333;" width="316.8538" x="543.0526" y="591.8213"/><text fill="#000000" font-family="Arial" font-size="25" lengthAdjust="spacing" textLength="283.5205" x="559.7192" y="631.9377">Qu&#7843;n l&#253; x&#225;c nh&#7853;n k&#7871;t qu&#7843;</text><rect fill="#FFFFFF" height="62.0809" style="stroke:#000000;stroke-width:0.8333;" width="346.0531" x="528.453" y="687.2355"/><text fill="#000000" font-family="Arial" font-size="25" lengthAdjust="spacing" textLength="312.7197" x="545.1196" y="727.3519">H&#7879; th&#7889;ng ki&#7875;m tra l&#7841;i d&#7919; li&#7879;u</text><rect fill="#FFFFFF" height="62.0809" style="stroke:#000000;stroke-width:0.8333;" width="585.262" x="408.8485" y="782.6497"/><text fill="#000000" font-family="Arial" font-size="25" lengthAdjust="spacing" textLength="551.9287" x="425.5151" y="822.7661">L&#432;u phi&#234;n b&#7843;n k&#7871;t qu&#7843;, chi ph&#237; v&#224; d&#7919; li&#7879;u ph&#226;n b&#7893;</text><rect fill="#FFFFFF" height="62.0809" style="stroke:#000000;stroke-width:0.8333;" width="240.4134" x="581.2728" y="878.064"/><text fill="#000000" font-family="Arial" font-size="25" lengthAdjust="spacing" textLength="207.0801" x="597.9395" y="918.1803">&#272;&#7889;i chi&#7871;u t&#7893;ng ti&#7873;n</text><rect fill="#FFFFFF" height="62.0809" style="stroke:#000000;stroke-width:0.8333;" width="412.7401" x="495.1095" y="973.4782"/><text fill="#000000" font-family="Arial" font-size="25" lengthAdjust="spacing" textLength="379.4067" x="511.7761" y="1013.5946">Chuy&#7875;n k&#7923; sang tr&#7841;ng th&#225;i &#273;&#227; ch&#7889;t</text><rect fill="#FFFFFF" height="62.0809" style="stroke:#000000;stroke-width:0.8333;" width="293.1966" x="554.8812" y="1068.8924"/><text fill="#000000" font-family="Arial" font-size="25" lengthAdjust="spacing" textLength="259.8633" x="571.5479" y="1109.0088">Hi&#7875;n th&#7883; k&#7871;t qu&#7843; ch&#7889;t k&#7923;</text><rect fill="#FFFFFF" height="62.0809" style="stroke:#000000;stroke-width:0.8333;" width="399.9227" x="501.5181" y="1248.6804"/><text fill="#000000" font-family="Arial" font-size="25" lengthAdjust="spacing" textLength="366.5894" x="518.1848" y="1288.7968">Ki&#7875;m tra quy&#7873;n, th&#7901;i h&#7841;n v&#224; l&#253; do</text><rect fill="#FFFFFF" height="62.0809" style="stroke:#000000;stroke-width:0.8333;" width="382.1615" x="510.3988" y="1344.0946"/><text fill="#000000" font-family="Arial" font-size="25" lengthAdjust="spacing" textLength="348.8281" x="527.0654" y="1384.211">Qu&#7843;n l&#253; kh&#225;c x&#225;c nh&#7853;n y&#234;u c&#7847;u</text><rect fill="#FFFFFF" height="62.0809" style="stroke:#000000;stroke-width:0.8333;" width="516.4388" x="443.2601" y="1464.5089"/><text fill="#000000" font-family="Arial" font-size="25" lengthAdjust="spacing" textLength="483.1055" x="459.9268" y="1504.6252">C&#7853;p nh&#7853;t &#273;&#417;n v&#224; t&#7841;o phi&#234;n b&#7843;n k&#7871;t qu&#7843; m&#7899;i</text><rect fill="#FFFFFF" height="62.0809" style="stroke:#000000;stroke-width:0.8333;" width="507.1493" x="447.9049" y="1559.9231"/><text fill="#000000" font-family="Arial" font-size="25" lengthAdjust="spacing" textLength="473.8159" x="464.5715" y="1600.0395">Gi&#7919; nguy&#234;n c&#225;c phi&#234;n b&#7843;n &#273;&#227; l&#432;u tr&#432;&#7899;c &#273;&#243;</text><polygon fill="#F2F2F2" points="520.1074,1164.3066,882.8516,1164.3066,902.8516,1184.3066,882.8516,1204.3066,520.1074,1204.3066,500.1074,1184.3066,520.1074,1164.3066" style="stroke:#000000;stroke-width:0.8333;stroke-linejoin:miter;stroke-miterlimit:10;"/><text fill="#000000" font-family="Arial" font-size="25" lengthAdjust="spacing" textLength="31.958" x="708.1462" y="1227.7563">C&#243;</text><text fill="#000000" font-family="Arial" font-size="25" lengthAdjust="spacing" textLength="362.7441" x="520.1074" y="1193.3826">C&#243; y&#234;u c&#7847;u &#273;i&#7873;u ch&#7881;nh sau ch&#7889;t?</text><polygon fill="#F2F2F2" points="701.4795,1655.3373,721.4795,1675.3373,701.4795,1695.3373,681.4795,1675.3373,701.4795,1655.3373" style="stroke:#000000;stroke-width:0.8333;stroke-linejoin:miter;stroke-miterlimit:10;"/><polygon fill="#F2F2F2" points="451.2852,1705.3373,471.2852,1725.3373,451.2852,1745.3373,431.2852,1725.3373,451.2852,1705.3373" style="stroke:#000000;stroke-width:0.8333;stroke-linejoin:miter;stroke-miterlimit:10;"/><ellipse cx="451.2852" cy="1797.004" fill="none" rx="18.3333" ry="18.3333" style="stroke:#222222;stroke-width:1.6667;"/><ellipse cx="451.2852" cy="1797.004" fill="#222222" rx="10" ry="10" style="stroke:#222222;stroke-width:1.6667;"/><line style="stroke:#000000;stroke-width:1.8333;" x1="451.2852" x2="451.2852" y1="120.1644" y2="153.4977"/><polygon fill="#000000" points="444.6185,136.8311,451.2852,153.4977,457.9519,136.8311,451.2852,143.4977" style="stroke:#000000;stroke-width:1.6667;stroke-linejoin:miter;stroke-miterlimit:10;"/><line style="stroke:#000000;stroke-width:1.8333;" x1="451.2852" x2="451.2852" y1="215.5786" y2="248.9119"/><polygon fill="#000000" points="444.6185,232.2453,451.2852,248.9119,457.9519,232.2453,451.2852,238.9119" style="stroke:#000000;stroke-width:1.6667;stroke-linejoin:miter;stroke-miterlimit:10;"/><line style="stroke:#000000;stroke-width:1.8333;" x1="451.2852" x2="451.2852" y1="310.9928" y2="344.3262"/><polygon fill="#000000" points="444.6185,327.6595,451.2852,344.3262,457.9519,327.6595,451.2852,334.3262" style="stroke:#000000;stroke-width:1.6667;stroke-linejoin:miter;stroke-miterlimit:10;"/><line style="stroke:#000000;stroke-width:1.8333;" x1="451.2852" x2="451.2852" y1="406.4071" y2="439.7404"/><polygon fill="#000000" points="444.6185,423.0737,451.2852,439.7404,457.9519,423.0737,451.2852,429.7404" style="stroke:#000000;stroke-width:1.6667;stroke-linejoin:miter;stroke-miterlimit:10;"/><line style="stroke:#000000;stroke-width:1.8333;" x1="201.0909" x2="201.0909" y1="653.9022" y2="687.2355"/><polygon fill="#000000" points="194.4242,670.5688,201.0909,687.2355,207.7576,670.5688,201.0909,677.2355" style="stroke:#000000;stroke-width:1.6667;stroke-linejoin:miter;stroke-miterlimit:10;"/><line style="stroke:#000000;stroke-width:1.8333;" x1="701.4795" x2="701.4795" y1="653.9022" y2="687.2355"/><polygon fill="#000000" points="694.8128,670.5688,701.4795,687.2355,708.1462,670.5688,701.4795,677.2355" style="stroke:#000000;stroke-width:1.6667;stroke-linejoin:miter;stroke-miterlimit:10;"/><line style="stroke:#000000;stroke-width:1.8333;" x1="701.4795" x2="701.4795" y1="749.3164" y2="782.6497"/><polygon fill="#000000" points="694.8128,765.9831,701.4795,782.6497,708.1462,765.9831,701.4795,772.6497" style="stroke:#000000;stroke-width:1.6667;stroke-linejoin:miter;stroke-miterlimit:10;"/><line style="stroke:#000000;stroke-width:1.8333;" x1="701.4795" x2="701.4795" y1="844.7306" y2="878.064"/><polygon fill="#000000" points="694.8128,861.3973,701.4795,878.064,708.1462,861.3973,701.4795,868.064" style="stroke:#000000;stroke-width:1.6667;stroke-linejoin:miter;stroke-miterlimit:10;"/><line style="stroke:#000000;stroke-width:1.8333;" x1="701.4795" x2="701.4795" y1="940.1449" y2="973.4782"/><polygon fill="#000000" points="694.8128,956.8115,701.4795,973.4782,708.1462,956.8115,701.4795,963.4782" style="stroke:#000000;stroke-width:1.6667;stroke-linejoin:miter;stroke-miterlimit:10;"/><line style="stroke:#000000;stroke-width:1.8333;" x1="701.4795" x2="701.4795" y1="1035.5591" y2="1068.8924"/><polygon fill="#000000" points="694.8128,1052.2257,701.4795,1068.8924,708.1462,1052.2257,701.4795,1058.8924" style="stroke:#000000;stroke-width:1.6667;stroke-linejoin:miter;stroke-miterlimit:10;"/><line style="stroke:#000000;stroke-width:1.8333;" x1="701.4795" x2="701.4795" y1="1310.7613" y2="1344.0946"/><polygon fill="#000000" points="694.8128,1327.428,701.4795,1344.0946,708.1462,1327.428,701.4795,1334.0946" style="stroke:#000000;stroke-width:1.6667;stroke-linejoin:miter;stroke-miterlimit:10;"/><line style="stroke:#000000;stroke-width:1.8333;" x1="701.4795" x2="701.4795" y1="1406.1755" y2="1464.5089"/><polygon fill="#000000" points="694.8128,1447.8422,701.4795,1464.5089,708.1462,1447.8422,701.4795,1454.5089" style="stroke:#000000;stroke-width:1.6667;stroke-linejoin:miter;stroke-miterlimit:10;"/><line style="stroke:#000000;stroke-width:1.8333;" x1="701.4795" x2="701.4795" y1="1526.5898" y2="1559.9231"/><polygon fill="#000000" points="694.8128,1543.2564,701.4795,1559.9231,708.1462,1543.2564,701.4795,1549.9231" style="stroke:#000000;stroke-width:1.6667;stroke-linejoin:miter;stroke-miterlimit:10;"/><line style="stroke:#000000;stroke-width:1.8333;" x1="701.4795" x2="701.4795" y1="1204.3066" y2="1248.6804"/><polygon fill="#000000" points="694.8128,1232.0138,701.4795,1248.6804,708.1462,1232.0138,701.4795,1238.6804" style="stroke:#000000;stroke-width:1.6667;stroke-linejoin:miter;stroke-miterlimit:10;"/><line style="stroke:#000000;stroke-width:1.8333;" x1="902.8516" x2="976.3656" y1="1184.3066" y2="1184.3066"/><polygon fill="#000000" points="969.6989,1418.6755,976.3656,1435.3422,983.0322,1418.6755,976.3656,1425.3422" style="stroke:#000000;stroke-width:1.8333;stroke-linejoin:miter;stroke-miterlimit:10;"/><line style="stroke:#000000;stroke-width:1.8333;" x1="976.3656" x2="976.3656" y1="1184.3066" y2="1675.3373"/><line style="stroke:#000000;stroke-width:1.8333;" x1="976.3656" x2="721.4795" y1="1675.3373" y2="1675.3373"/><polygon fill="#000000" points="738.1462,1668.6707,721.4795,1675.3373,738.1462,1682.004,731.4795,1675.3373" style="stroke:#000000;stroke-width:1.6667;stroke-linejoin:miter;stroke-miterlimit:10;"/><line style="stroke:#000000;stroke-width:1.8333;" x1="701.4795" x2="701.4795" y1="1622.004" y2="1655.3373"/><polygon fill="#000000" points="694.8128,1638.6707,701.4795,1655.3373,708.1462,1638.6707,701.4795,1645.3373" style="stroke:#000000;stroke-width:1.6667;stroke-linejoin:miter;stroke-miterlimit:10;"/><line style="stroke:#000000;stroke-width:1.8333;" x1="701.4795" x2="701.4795" y1="1130.9733" y2="1164.3066"/><polygon fill="#000000" points="694.8128,1147.64,701.4795,1164.3066,708.1462,1147.64,701.4795,1154.3066" style="stroke:#000000;stroke-width:1.6667;stroke-linejoin:miter;stroke-miterlimit:10;"/><line style="stroke:#000000;stroke-width:1.8333;" x1="273.5398" x2="201.0909" y1="555.1546" y2="555.1546"/><line style="stroke:#000000;stroke-width:1.8333;" x1="201.0909" x2="201.0909" y1="555.1546" y2="591.8213"/><polygon fill="#000000" points="194.4242,575.1546,201.0909,591.8213,207.7576,575.1546,201.0909,581.8213" style="stroke:#000000;stroke-width:1.6667;stroke-linejoin:miter;stroke-miterlimit:10;"/><line style="stroke:#000000;stroke-width:1.8333;" x1="629.0306" x2="701.4795" y1="555.1546" y2="555.1546"/><line style="stroke:#000000;stroke-width:1.8333;" x1="701.4795" x2="701.4795" y1="555.1546" y2="591.8213"/><polygon fill="#000000" points="694.8128,575.1546,701.4795,591.8213,708.1462,575.1546,701.4795,581.8213" style="stroke:#000000;stroke-width:1.6667;stroke-linejoin:miter;stroke-miterlimit:10;"/><line style="stroke:#000000;stroke-width:1.8333;" x1="201.0909" x2="201.0909" y1="749.3164" y2="1725.3373"/><line style="stroke:#000000;stroke-width:1.8333;" x1="201.0909" x2="431.2852" y1="1725.3373" y2="1725.3373"/><polygon fill="#000000" points="414.6185,1718.6707,431.2852,1725.3373,414.6185,1732.004,421.2852,1725.3373" style="stroke:#000000;stroke-width:1.6667;stroke-linejoin:miter;stroke-miterlimit:10;"/><line style="stroke:#000000;stroke-width:1.8333;" x1="701.4795" x2="701.4795" y1="1695.3373" y2="1725.3373"/><line style="stroke:#000000;stroke-width:1.8333;" x1="701.4795" x2="471.2852" y1="1725.3373" y2="1725.3373"/><polygon fill="#000000" points="487.9519,1718.6707,471.2852,1725.3373,487.9519,1732.004,481.2852,1725.3373" style="stroke:#000000;stroke-width:1.6667;stroke-linejoin:miter;stroke-miterlimit:10;"/><line style="stroke:#000000;stroke-width:1.8333;" x1="451.2852" x2="451.2852" y1="501.8213" y2="535.1546"/><polygon fill="#000000" points="444.6185,518.488,451.2852,535.1546,457.9519,518.488,451.2852,525.1546" style="stroke:#000000;stroke-width:1.6667;stroke-linejoin:miter;stroke-miterlimit:10;"/><line style="stroke:#000000;stroke-width:1.8333;" x1="451.2852" x2="451.2852" y1="1745.3373" y2="1778.6707"/><polygon fill="#000000" points="444.6185,1762.004,451.2852,1778.6707,457.9519,1762.004,451.2852,1768.6707" style="stroke:#000000;stroke-width:1.6667;stroke-linejoin:miter;stroke-miterlimit:10;"/><?plantuml-src TPF1Qjj048RlUehfBGRNkTk7KdoeWqiXRLp8KPKLQR6yLgpTODqISaXBMx0FEPL0NLCA0PCGz-IbzB32xx5lqfcL6ik2NBJIpZ__p7wpUiQu5yc-3ut6lZSQ3aTyt_K4EsCYVPw8DF8RiHn6Zc0Yyk6mTmn7R_MNDnreTuoQ7a7Ng0TuhyyXcnuOTTwp-nyn_kvbhz0uJYBSiN2QXzAi5nmY_GUyqAYl70P6hUh0G_qTFCa3yCpwPmnd-Fc1f044JCzRJlDOtqeA_f8myOSWnfjxexvvcB_-A-2KVAtbJ5XBpC3ALo1e2rs4KTUuuDSYXcoscVFYFK9LLPpDS6Lenz1SsWviHzcC6NKXOO3B5I_AjHns0djj_S2hSHvabxpSr8iQbl0vgLSr1w3PGI5AgEvdwBiyX4JFlT2UayF4g2MXQf6qHEv_6NB-X3bze-uWefgovVXHuiDUDzI_UL2h94xG756RzPANkLd_7G1qW4k2x2AVzPpjba3rwyszX3Xa-fRdSohxrOaSHlNIKYlbqkOFob3NrYQRxe0kXYJeUDmAsg5CBIB21ubBqJ5sH6keiR5ifXUFWwWIVV9k0EGpMq6wlLPLh8ahYwpgtB1ETqleb5gyu7LRz8RXlSB-xCc9UN_KoZDASnY4D8ZoDBPj5EesRiTvL1JtbHm5Ue-U10z3_2LOuV2A4NSUo9Iq7XNRoRFa8fhZux-4MnQEp_linCcVYHZ5_m00?></g></svg>