<svg xmlns="http://www.w3.org/2000/svg" xmlns:xlink="http://www.w3.org/1999/xlink" contentStyleType="text/css" data-diagram-type="DESCRIPTION" height="1286.6667px" preserveAspectRatio="none" style="width:881px;height:1286px;background:#FFFFFF;" version="1.1" viewBox="0 0 881 1286" width="881.6667px" zoomAndPan="magnify"><?plantuml 1.2026.6?><defs/><g><g class="title" data-source-line="2"><text fill="#000000" font-family="Arial" font-size="23.3333" font-weight="700" lengthAdjust="spacing" textLength="228.1494" x="321.1076" y="38.5531">QU&#7842;N L&#221; B&#7842;NG GI&#193;</text></g><!--cluster H? th?ng GTAS VPP--><g class="cluster" data-qualified-name="H. th.ng GTAS VPP" data-source-line="6" id="ent0002"><rect fill="#FFFFFF" height="1008.3333" style="stroke:#000000;stroke-width:1.6667;" width="846.6667" x="11.6667" y="255.9977"/><text fill="#000000" font-family="Arial" font-size="25" font-weight="700" lengthAdjust="spacing" textLength="241.6748" x="314.1626" y="282.7808">H&#7879; th&#7889;ng GTAS VPP</text></g><!--entity PriceList--><g class="entity" data-qualified-name="H. th.ng GTAS VPP.PriceList" data-source-line="7" id="ent0003"><ellipse cx="217.0428" cy="360.683" fill="#E6E6E6" rx="71.2095" ry="44.6853" style="stroke:#000000;stroke-width:0.8333;"/><text fill="#000000" font-family="Arial" font-size="25" lengthAdjust="spacing" textLength="86.1572" x="173.9642" y="353.4608">Qu&#7843;n l&#253;</text><text fill="#000000" font-family="Arial" font-size="25" lengthAdjust="spacing" textLength="95.9229" x="169.0814" y="382.2084">b&#7843;ng gi&#225;</text></g><!--entity SaveList--><g class="entity" data-qualified-name="H. th.ng GTAS VPP.SaveList" data-source-line="8" id="ent0004"><ellipse cx="606.7609" cy="360.9568" fill="#FFFFFF" rx="145.9276" ry="44.1258" style="stroke:#000000;stroke-width:0.8333;"/><text fill="#000000" font-family="Arial" font-size="25" lengthAdjust="spacing" textLength="207.0923" x="503.2148" y="357.3304">T&#7841;o ho&#7863;c c&#7853;p nh&#7853;t</text><text fill="#000000" font-family="Arial" font-size="25" lengthAdjust="spacing" textLength="172.3877" x="520.5671" y="386.078">phi&#234;n b&#7843;n nh&#225;p</text></g><!--entity Commercial--><g class="entity" data-qualified-name="H. th.ng GTAS VPP.Commercial" data-source-line="9" id="ent0005"><ellipse cx="586.9852" cy="537.3358" fill="#FFFFFF" rx="178.6518" ry="43.0047" style="stroke:#000000;stroke-width:0.8333;"/><text fill="#000000" font-family="Arial" font-size="25" lengthAdjust="spacing" textLength="262.7075" x="455.6314" y="535.3917">Khai b&#225;o nh&#224; cung c&#7845;p,</text><text fill="#000000" font-family="Arial" font-size="25" lengthAdjust="spacing" textLength="177.9541" x="498.0081" y="564.1392">hi&#7879;u l&#7921;c v&#224; thu&#7871;</text></g><!--entity Price--><g class="entity" data-qualified-name="H. th.ng GTAS VPP.Price" data-source-line="10" id="ent0006"><ellipse cx="473.4723" cy="714.761" fill="#FFFFFF" rx="135.9723" ry="45.4299" style="stroke:#000000;stroke-width:0.8333;"/><text fill="#000000" font-family="Arial" font-size="25" lengthAdjust="spacing" textLength="182.0679" x="382.4384" y="708.6081">Qu&#7843;n l&#253; gi&#225; theo</text><text fill="#000000" font-family="Arial" font-size="25" lengthAdjust="spacing" textLength="186.2549" x="380.3448" y="737.3557">v&#259;n ph&#242;ng ph&#7849;m</text></g><!--entity Publish--><g class="entity" data-qualified-name="H. th.ng GTAS VPP.Publish" data-source-line="11" id="ent0007"><ellipse cx="315.0818" cy="894.8389" fill="#FFFFFF" rx="72.5818" ry="45.5078" style="stroke:#000000;stroke-width:0.8333;"/><text fill="#000000" font-family="Arial" font-size="25" lengthAdjust="spacing" textLength="94.519" x="267.8223" y="888.7967">C&#244;ng b&#7889;</text><text fill="#000000" font-family="Arial" font-size="25" lengthAdjust="spacing" textLength="95.9229" x="267.1204" y="917.5443">b&#7843;ng gi&#225;</text></g><!--entity Expire--><g class="entity" data-qualified-name="H. th.ng GTAS VPP.Expire" data-source-line="12" id="ent0008"><ellipse cx="149.7231" cy="1043.4336" fill="#FFFFFF" rx="93.8898" ry="44.1025" style="stroke:#000000;stroke-width:0.8333;"/><text fill="#000000" font-family="Arial" font-size="25" lengthAdjust="spacing" textLength="108.4229" x="95.5117" y="1035.3591">&#272;&#225;nh d&#7845;u</text><text fill="#000000" font-family="Arial" font-size="25" lengthAdjust="spacing" textLength="130.7007" x="84.3728" y="1064.1066">h&#7871;t hi&#7879;u l&#7921;c</text></g><!--entity Validate--><g class="entity" data-qualified-name="H. th.ng GTAS VPP.Validate" data-source-line="13" id="ent0009"><ellipse cx="459.6434" cy="1191.9264" fill="#FFFFFF" rx="209.6434" ry="45.9287" style="stroke:#000000;stroke-width:0.8333;"/><text fill="#000000" font-family="Arial" font-size="25" lengthAdjust="spacing" textLength="244.2871" x="337.4998" y="1182.0017">Ki&#7875;m tra gi&#225;, th&#7901;i gian</text><text fill="#000000" font-family="Arial" font-size="25" lengthAdjust="spacing" textLength="326.6846" x="296.3011" y="1210.7493">v&#224; kho&#7843;ng hi&#7879;u l&#7921;c ch&#7891;ng l&#7845;n</text></g><!--entity Procurement--><g class="entity" data-qualified-name="Procurement" data-source-line="4" id="ent0001"><ellipse cx="216.4119" cy="85.1644" fill="#F1F1F1" rx="13.3333" ry="13.3333" style="stroke:#000000;stroke-width:0.8333;"/><path d="M216.4119,98.4977 L216.4119,143.4977 M194.7453,111.8311 L238.0786,111.8311 M216.4119,143.4977 L194.7453,168.4977 M216.4119,143.4977 L238.0786,168.4977" fill="none" style="stroke:#000000;stroke-width:0.8333;"/><text fill="#000000" font-family="Arial" font-size="25" lengthAdjust="spacing" textLength="86.1572" x="173.3333" y="194.4474">Qu&#7843;n l&#253;</text></g><!--link PriceList to SaveList--><!--link PriceList to SaveList--><g class="link" data-entity-1="ent0003" data-entity-2="ent0004" data-link-type="dependency" data-source-line="16" id="lnk11"><path d="M287.75,360.9977 C335.8667,360.9977 392.8333,360.9977 451.8167,360.9977" fill="none" id="PriceList-to-SaveList" style="stroke:#000000;stroke-width:2;stroke-dasharray:11.6667,11.6667;"/><polygon fill="#000000" points="460.15,360.9977,445.15,354.3311,451.8167,360.9977,445.15,367.6644,460.15,360.9977" style="stroke:#000000;stroke-width:2;stroke-linejoin:miter;stroke-miterlimit:10;"/><text fill="#000000" font-family="Arial" font-size="25" lengthAdjust="spacing" textLength="107.0313" x="320.8333" y="349.4474">&#171;include&#187;</text></g><!--link PriceList to Commercial--><g class="link" data-entity-1="ent0003" data-entity-2="ent0005" data-link-type="dependency" data-source-line="17" id="lnk12"><path d="M272.8667,388.9977 C335.3333,418.2477 429.1537,462.2126 499.7037,495.2626" fill="none" id="PriceList-to-Commercial" style="stroke:#000000;stroke-width:2;stroke-dasharray:11.6667,11.6667;"/><polygon fill="#000000" points="507.25,498.7977,496.4947,486.3974,499.7037,495.2626,490.8385,498.4715,507.25,498.7977" style="stroke:#000000;stroke-width:2;stroke-linejoin:miter;stroke-miterlimit:10;"/><text fill="#000000" font-family="Arial" font-size="25" lengthAdjust="spacing" textLength="107.0313" x="435" y="459.4474">&#171;include&#187;</text></g><!--link PriceList to Price--><g class="link" data-entity-1="ent0003" data-entity-2="ent0006" data-link-type="dependency" data-source-line="18" id="lnk13"><path d="M226.55,405.7977 C241.1167,469.4311 266.6667,580.9977 266.6667,580.9977 C266.6667,580.9977 343.9511,630.5504 404.8677,669.6004" fill="none" id="PriceList-to-Price" style="stroke:#000000;stroke-width:2;stroke-dasharray:11.6667,11.6667;"/><polygon fill="#000000" points="411.8833,674.0977,402.8531,660.3901,404.8677,669.6004,395.6574,671.6151,411.8833,674.0977" style="stroke:#000000;stroke-width:2;stroke-linejoin:miter;stroke-miterlimit:10;"/><text fill="#000000" font-family="Arial" font-size="25" lengthAdjust="spacing" textLength="107.0313" x="268.3333" y="546.9474">&#171;include&#187;</text></g><!--link Publish to PriceList--><g class="link" data-entity-1="ent0007" data-entity-2="ent0003" data-link-type="dependency" data-source-line="19" id="lnk14"><path d="M297,850.2811 C269.8833,785.1311 221.6667,669.3311 221.6667,669.3311 C221.6667,669.3311 190,640.9977 190,640.9977 C190,640.9977 190,609.3311 190,609.3311 C190,609.3311 203.4031,485.2993 211.0697,414.4826" fill="none" id="Publish-to-PriceList" style="stroke:#000000;stroke-width:2;stroke-dasharray:11.6667,11.6667;"/><polygon fill="#000000" points="211.9667,406.1977,203.7242,420.393,211.0697,414.4826,216.9801,421.8281,211.9667,406.1977" style="stroke:#000000;stroke-width:2;stroke-linejoin:miter;stroke-miterlimit:10;"/><text fill="#000000" font-family="Arial" font-size="25" lengthAdjust="spacing" textLength="102.8687" x="191.6667" y="634.4474">&#171;extend&#187;</text></g><!--link Expire to PriceList--><g class="link" data-entity-1="ent0008" data-entity-2="ent0003" data-link-type="dependency" data-source-line="20" id="lnk15"><path d="M142.6667,999.1811 C129.1333,920.6144 101.6667,760.9977 101.6667,760.9977 C101.6667,760.9977 101.6667,669.3311 101.6667,669.3311 C101.6667,669.3311 166.1573,497.3671 197.7573,413.1005" fill="none" id="Expire-to-PriceList" style="stroke:#000000;stroke-width:2;stroke-dasharray:11.6667,11.6667;"/><polygon fill="#000000" points="200.6833,405.2977,189.1743,417.0018,197.7573,413.1005,201.6587,421.6835,200.6833,405.2977" style="stroke:#000000;stroke-width:2;stroke-linejoin:miter;stroke-miterlimit:10;"/><text fill="#000000" font-family="Arial" font-size="25" lengthAdjust="spacing" textLength="102.8687" x="103.3333" y="724.4474">&#171;extend&#187;</text></g><!--link SaveList to Validate--><g class="link" data-entity-1="ent0004" data-entity-2="ent0009" data-link-type="dependency" data-source-line="21" id="lnk16"><path d="M663.1667,401.8144 C719.1667,440.6311 796.6667,494.3311 796.6667,494.3311 C796.6667,494.3311 796.6667,580.9977 796.6667,580.9977 C796.6667,580.9977 713.3333,940.9977 713.3333,940.9977 C713.3333,940.9977 582.6581,1069.5378 510.0748,1140.9212" fill="none" id="SaveList-to-Validate" style="stroke:#000000;stroke-width:2;stroke-dasharray:11.6667,11.6667;"/><polygon fill="#000000" points="504.1333,1146.7644,519.5026,1140.9997,510.0748,1140.9212,510.1534,1131.4934,504.1333,1146.7644" style="stroke:#000000;stroke-width:2;stroke-linejoin:miter;stroke-miterlimit:10;"/><text fill="#000000" font-family="Arial" font-size="25" lengthAdjust="spacing" textLength="107.0313" x="748.3333" y="814.4474">&#171;include&#187;</text></g><!--link Commercial to Validate--><g class="link" data-entity-1="ent0005" data-entity-2="ent0009" data-link-type="dependency" data-source-line="22" id="lnk17"><path d="M604.3667,581.1811 C620.45,619.1811 641.6667,669.3311 641.6667,669.3311 C641.6667,669.3311 641.6667,760.9977 641.6667,760.9977 C641.6667,760.9977 595,849.3311 595,849.3311 C595,849.3311 533.3333,1087.6644 533.3333,1087.6644 C533.3333,1087.6644 516.2471,1111.5357 496.3804,1139.3191" fill="none" id="Commercial-to-Validate" style="stroke:#000000;stroke-width:2;stroke-dasharray:11.6667,11.6667;"/><polygon fill="#000000" points="491.5333,1146.0977,505.681,1137.7739,496.3804,1139.3191,494.8352,1130.0185,491.5333,1146.0977" style="stroke:#000000;stroke-width:2;stroke-linejoin:miter;stroke-miterlimit:10;"/><text fill="#000000" font-family="Arial" font-size="25" lengthAdjust="spacing" textLength="107.0313" x="596.6667" y="904.4474">&#171;include&#187;</text></g><!--link Publish to Validate--><g class="link" data-entity-1="ent0007" data-entity-2="ent0009" data-link-type="dependency" data-source-line="23" id="lnk18"><path d="M336.0833,939.4811 C363.3333,994.6144 406.8729,1082.6944 434.4896,1138.5444" fill="none" id="Publish-to-Validate" style="stroke:#000000;stroke-width:2;stroke-dasharray:11.6667,11.6667;"/><polygon fill="#000000" points="438.1833,1146.0144,437.5106,1129.6134,434.4896,1138.5444,425.5586,1135.5234,438.1833,1146.0144" style="stroke:#000000;stroke-width:2;stroke-linejoin:miter;stroke-miterlimit:10;"/><text fill="#000000" font-family="Arial" font-size="25" lengthAdjust="spacing" textLength="107.0313" x="410" y="1052.7808">&#171;include&#187;</text></g><!--link SaveList to Commercial--><!--link Commercial to Price--><!--link Price to Publish--><!--link Publish to Expire--><!--link Expire to Validate--><!--link Procurement to PriceList--><g class="link" data-entity-1="ent0001" data-entity-2="ent0003" data-link-type="dependency" data-source-line="32" id="lnk24"><path d="M216.6667,199.3977 C216.6667,236.4144 216.6667,274.0644 216.6667,307.1977" fill="none" id="Procurement-to-PriceList" style="stroke:#000000;stroke-width:2;"/><polygon fill="#000000" points="216.6667,315.5311,223.3333,300.5311,216.6667,307.1977,210,300.5311,216.6667,315.5311" style="stroke:#000000;stroke-width:2;stroke-linejoin:miter;stroke-miterlimit:10;"/></g><?plantuml-src VLF1RjD04BtxAuPmhTCR1rH5WgeAg1LArT8BuR1PhxmhrcFBNeSYn07rm1N4kH81SG290mW9oH7gOViZ_XF6cyJPk2NomTxTD--zUJk-ev3hCXBGx-_oD4bIt2qBmLaXmiAyqgAVbOaEZ39QmF7Jklhy18xi9JnileOmV6pV1W7Z9isXTrpMrHS4RV_sW1KmobDUvY8HQ88W5zmmZ8cazwYUlmCZw_a7Z65u-k04paQZ7hmE09RAFjKO9yrd3B6oioMluk985GRk7jnh7h_mjAvcASYqhlvmu7Nr8mEKz39ZpAIotn4S7MtQMUReJjZKiVaiXv8fc5XY8jmdu2Nf4zdNR6UCKf7_4dGz_ybXIgT6ajahnxLF0OgSAwPlRyOrGGKY7UFq-W8Xa_ONSMTayLkoxiwlthU_2J6Xk6w9efneLKWVVltUpb12H6xBSTFwbG7VigixECzKlg5oI92B14pE7FkEkw1BHGk6v9NQVD64sgXl1C09zf4sDUcXupvZMaNCY83errSLFfCgYWG-prKiJUYdlWRr1-q-t8UzlULe3WPTr3hdxJYtk0bPfDO2MZrnRWH63hD8Q2kajKgWLTCtj3odss2UfVzWVC4sp2XzYU7cr7c27TXgiXQXT0_RILfPwG3QaLacqpbkR_rD47W_FeIXb-0_?></g></svg>