<?xml version="1.0" encoding="UTF-8" standalone="no"?><svg xmlns="http://www.w3.org/2000/svg" width="1280" height="1060" viewBox="0 0 1280 1060"><rect width="100%" height="100%" fill="#FFFFFF"/><circle cx="70" cy="314" r="13" fill="#FFFFFF" stroke="#000000" stroke-width="2"/><line x1="70" y1="327" x2="70" y2="372" stroke="#000000" stroke-width="2"/><line x1="45" y1="345" x2="95" y2="345" stroke="#000000" stroke-width="2"/><line x1="70" y1="372" x2="48" y2="397" stroke="#000000" stroke-width="2"/><line x1="70" y1="372" x2="92" y2="397" stroke="#000000" stroke-width="2"/><text x="70" y="421.0" text-anchor="middle" font-family="Arial" font-size="18" font-weight="700" fill="#000000"><tspan x="70" dy="0">Nhân viên</tspan></text><circle cx="70" cy="764" r="13" fill="#FFFFFF" stroke="#000000" stroke-width="2"/><line x1="70" y1="777" x2="70" y2="822" stroke="#000000" stroke-width="2"/><line x1="45" y1="795" x2="95" y2="795" stroke="#000000" stroke-width="2"/><line x1="70" y1="822" x2="48" y2="847" stroke="#000000" stroke-width="2"/><line x1="70" y1="822" x2="92" y2="847" stroke="#000000" stroke-width="2"/><text x="70" y="860.38" text-anchor="middle" font-family="Arial" font-size="18" font-weight="700" fill="#000000"><tspan x="70" dy="0">Quản lý</tspan><tspan x="70" dy="21.24">phòng ban</tspan></text><circle cx="1210" cy="314" r="13" fill="#FFFFFF" stroke="#000000" stroke-width="2"/><line x1="1210" y1="327" x2="1210" y2="372" stroke="#000000" stroke-width="2"/><line x1="1185" y1="345" x2="1235" y2="345" stroke="#000000" stroke-width="2"/><line x1="1210" y1="372" x2="1188" y2="397" stroke="#000000" stroke-width="2"/><line x1="1210" y1="372" x2="1232" y2="397" stroke="#000000" stroke-width="2"/><text x="1210" y="421.0" text-anchor="middle" font-family="Arial" font-size="18" font-weight="700" fill="#000000"><tspan x="1210" dy="0">Quản trị viên</tspan></text><circle cx="1210" cy="864" r="13" fill="#FFFFFF" stroke="#000000" stroke-width="2"/><line x1="1210" y1="877" x2="1210" y2="922" stroke="#000000" stroke-width="2"/><line x1="1185" y1="895" x2="1235" y2="895" stroke="#000000" stroke-width="2"/><line x1="1210" y1="922" x2="1188" y2="947" stroke="#000000" stroke-width="2"/><line x1="1210" y1="922" x2="1232" y2="947" stroke="#000000" stroke-width="2"/><text x="1210" y="971.0" text-anchor="middle" font-family="Arial" font-size="18" font-weight="700" fill="#000000"><tspan x="1210" dy="0">Xử lý tự động</tspan></text><rect x="170" y="60" width="940" height="940" fill="#FFFFFF" stroke="#000000" stroke-width="2.2"/><rect x="170" y="60" width="940" height="50" fill="#E6E6E6" stroke="none"/><line x1="170" y1="110" x2="1110" y2="110" stroke="#000000" stroke-width="1.5"/><text x="640" y="92.0" text-anchor="middle" font-family="Arial" font-size="22" font-weight="700" fill="#000000"><tspan x="640" dy="0">HỆ THỐNG GTAS VPP</tspan></text><line x1="640" y1="125" x2="640" y2="970" stroke="#777777" stroke-width="1.2" stroke-dasharray="7 7"/><text x="420" y="140.0" text-anchor="middle" font-family="Arial" font-size="16" font-weight="700" fill="#000000"><tspan x="420" dy="0">NGHIỆP VỤ NGƯỜI DÙNG</tspan></text><text x="860" y="140.0" text-anchor="middle" font-family="Arial" font-size="16" font-weight="700" fill="#000000"><tspan x="860" dy="0">QUẢN TRỊ HỆ THỐNG</tspan></text><line x1="95" y1="345" x2="270" y2="190" stroke="#000000" stroke-width="1.8"/><ellipse cx="420" cy="190" rx="150.0" ry="31.0" fill="#FFFFFF" stroke="#000000" stroke-width="2"/><text x="420" y="191.0" text-anchor="middle" font-family="Arial" font-size="18" font-weight="400" fill="#000000"><tspan x="420" dy="0">Đăng nhập và tải quyền</tspan></text><line x1="95" y1="345" x2="270" y2="285" stroke="#000000" stroke-width="1.8"/><ellipse cx="420" cy="285" rx="150.0" ry="31.0" fill="#FFFFFF" stroke="#000000" stroke-width="2"/><text x="420" y="275.38" text-anchor="middle" font-family="Arial" font-size="18" font-weight="400" fill="#000000"><tspan x="420" dy="0">Xem danh mục</tspan><tspan x="420" dy="21.24">văn phòng phẩm</tspan></text><line x1="95" y1="345" x2="270" y2="380" stroke="#000000" stroke-width="1.8"/><ellipse cx="420" cy="380" rx="150.0" ry="31.0" fill="#FFFFFF" stroke="#000000" stroke-width="2"/><text x="420" y="370.38" text-anchor="middle" font-family="Arial" font-size="18" font-weight="400" fill="#000000"><tspan x="420" dy="0">Tạo, sao chép, sửa</tspan><tspan x="420" dy="21.24">hoặc hủy đơn</tspan></text><line x1="95" y1="345" x2="270" y2="475" stroke="#000000" stroke-width="1.8"/><ellipse cx="420" cy="475" rx="150.0" ry="31.0" fill="#FFFFFF" stroke="#000000" stroke-width="2"/><text x="420" y="476.0" text-anchor="middle" font-family="Arial" font-size="18" font-weight="400" fill="#000000"><tspan x="420" dy="0">Tạo đơn bổ sung</tspan></text><line x1="95" y1="345" x2="270" y2="570" stroke="#000000" stroke-width="1.8"/><ellipse cx="420" cy="570" rx="150.0" ry="31.0" fill="#FFFFFF" stroke="#000000" stroke-width="2"/><text x="420" y="560.38" text-anchor="middle" font-family="Arial" font-size="18" font-weight="400" fill="#000000"><tspan x="420" dy="0">Xem lịch sử và</tspan><tspan x="420" dy="21.24">trạng thái đơn</tspan></text><line x1="95" y1="345" x2="270" y2="665" stroke="#000000" stroke-width="1.8"/><ellipse cx="420" cy="665" rx="150.0" ry="31.0" fill="#FFFFFF" stroke="#000000" stroke-width="2"/><text x="420" y="655.38" text-anchor="middle" font-family="Arial" font-size="18" font-weight="400" fill="#000000"><tspan x="420" dy="0">Báo cáo cá nhân và</tspan><tspan x="420" dy="21.24">hộp thư thông báo</tspan></text><line x1="1185" y1="345" x2="1010" y2="190" stroke="#000000" stroke-width="1.8"/><ellipse cx="860" cy="190" rx="150.0" ry="31.0" fill="#FFFFFF" stroke="#000000" stroke-width="2"/><text x="860" y="180.38" text-anchor="middle" font-family="Arial" font-size="18" font-weight="400" fill="#000000"><tspan x="860" dy="0">Quản lý danh mục,</tspan><tspan x="860" dy="21.24">vật tư và nhà cung cấp</tspan></text><line x1="1185" y1="345" x2="1010" y2="285" stroke="#000000" stroke-width="1.8"/><ellipse cx="860" cy="285" rx="150.0" ry="31.0" fill="#FFFFFF" stroke="#000000" stroke-width="2"/><text x="860" y="286.0" text-anchor="middle" font-family="Arial" font-size="18" font-weight="400" fill="#000000"><tspan x="860" dy="0">Quản lý bảng giá</tspan></text><line x1="1185" y1="345" x2="1010" y2="380" stroke="#000000" stroke-width="1.8"/><ellipse cx="860" cy="380" rx="150.0" ry="31.0" fill="#FFFFFF" stroke="#000000" stroke-width="2"/><text x="860" y="370.38" text-anchor="middle" font-family="Arial" font-size="18" font-weight="400" fill="#000000"><tspan x="860" dy="0">Duyệt hoặc từ chối</tspan><tspan x="860" dy="21.24">đơn bổ sung</tspan></text><line x1="1185" y1="345" x2="1010" y2="475" stroke="#000000" stroke-width="1.8"/><ellipse cx="860" cy="475" rx="150.0" ry="31.0" fill="#FFFFFF" stroke="#000000" stroke-width="2"/><text x="860" y="465.38" text-anchor="middle" font-family="Arial" font-size="18" font-weight="400" fill="#000000"><tspan x="860" dy="0">Đóng kỳ và</tspan><tspan x="860" dy="21.24">chụp đơn giá</tspan></text><line x1="1185" y1="345" x2="1010" y2="570" stroke="#000000" stroke-width="1.8"/><ellipse cx="860" cy="570" rx="150.0" ry="31.0" fill="#FFFFFF" stroke="#000000" stroke-width="2"/><text x="860" y="560.38" text-anchor="middle" font-family="Arial" font-size="18" font-weight="400" fill="#000000"><tspan x="860" dy="0">Quản lý người dùng</tspan><tspan x="860" dy="21.24">và phân quyền</tspan></text><line x1="1185" y1="345" x2="1010" y2="665" stroke="#000000" stroke-width="1.8"/><ellipse cx="860" cy="665" rx="150.0" ry="31.0" fill="#FFFFFF" stroke="#000000" stroke-width="2"/><text x="860" y="655.38" text-anchor="middle" font-family="Arial" font-size="18" font-weight="400" fill="#000000"><tspan x="860" dy="0">Báo cáo toàn hệ thống</tspan><tspan x="860" dy="21.24">và xuất CSV</tspan></text><text x="420" y="760.0" text-anchor="middle" font-family="Arial" font-size="16" font-weight="700" fill="#000000"><tspan x="420" dy="0">THEO DÕI PHÒNG BAN</tspan></text><line x1="95" y1="795" x2="270" y2="815" stroke="#000000" stroke-width="1.8"/><ellipse cx="420" cy="815" rx="150.0" ry="31.0" fill="#FFFFFF" stroke="#000000" stroke-width="2"/><text x="420" y="805.38" text-anchor="middle" font-family="Arial" font-size="18" font-weight="400" fill="#000000"><tspan x="420" dy="0">Báo cáo phòng ban</tspan><tspan x="420" dy="21.24">được cấp quyền</tspan></text><text x="860" y="875.0" text-anchor="middle" font-family="Arial" font-size="16" font-weight="700" fill="#000000"><tspan x="860" dy="0">XỬ LÝ NỘI BỘ</tspan></text><line x1="1185" y1="895" x2="1010" y2="930" stroke="#000000" stroke-width="1.8"/><ellipse cx="860" cy="930" rx="185.0" ry="35.0" fill="#FFFFFF" stroke="#000000" stroke-width="2"/><text x="860" y="920.38" text-anchor="middle" font-family="Arial" font-size="18" font-weight="400" fill="#000000"><tspan x="860" dy="0">Tính kỳ, kiểm tra ràng buộc,</tspan><tspan x="860" dy="21.24">chụp giá, ghi log và phát thông báo</tspan></text></svg>